<svg width="97" height="105" viewBox="0 0 97 105" fill="none" xmlns="http://www.w3.org/2000/svg">
<path d="M6.92831 52.1042C6.92727 44.3656 8.68721 36.7629 12.0312 30.0606C15.3752 23.3582 20.1855 17.7924 25.9784 13.9225C31.7713 10.0527 38.3428 8.01517 45.0322 8.01486C51.7216 8.01456 58.2932 10.0515 64.0864 13.9208C64.8816 14.4438 65.8234 14.5818 66.7062 14.3045C67.589 14.0272 68.3411 13.3573 68.7985 12.4408C69.2559 11.5243 69.3814 10.4358 69.1476 9.41269C68.9138 8.38959 68.3396 7.51501 67.5505 6.97981C58.9654 1.24573 48.9847 -1.05105 39.1563 0.445666C29.3279 1.94238 20.201 7.14894 13.1911 15.2579C6.18122 23.3668 1.68002 33.925 0.385616 45.295C-0.908789 56.6649 1.07593 68.2113 6.03198 78.1434C10.988 88.0754 18.6384 95.8382 27.7967 100.228C36.955 104.617 47.1094 105.388 56.6851 102.421C66.2607 99.454 74.7225 92.9146 80.7582 83.8171C86.7938 74.7196 90.066 63.5724 90.0673 52.1042C90.0673 51.0414 89.7023 50.022 89.0527 49.2705C88.403 48.5189 87.5219 48.0967 86.6032 48.0967C85.6844 48.0967 84.8033 48.5189 84.1537 49.2705C83.504 50.022 83.1391 51.0414 83.1391 52.1042C83.1391 63.7956 79.1244 75.0082 71.9783 83.2752C64.8321 91.5423 55.1399 96.1867 45.0337 96.1867C34.9275 96.1867 25.2353 91.5423 18.0891 83.2752C10.943 75.0082 6.92831 63.7956 6.92831 52.1042Z" fill="black"/>
<path d="M95.9841 14.8684C96.3062 14.4958 96.5617 14.0535 96.736 13.5667C96.9103 13.0798 97 12.5581 97 12.0311C97 11.5042 96.9103 10.9824 96.736 10.4956C96.5617 10.0087 96.3062 9.56641 95.9841 9.19381C95.662 8.8212 95.2797 8.52564 94.8588 8.32399C94.438 8.12234 93.987 8.01855 93.5315 8.01855C93.076 8.01855 92.625 8.12234 92.2042 8.32399C91.7833 8.52564 91.401 8.8212 91.0789 9.19381L45.0338 62.4695L26.7016 41.2538C26.3795 40.8812 25.9972 40.5856 25.5764 40.384C25.1555 40.1823 24.7045 40.0785 24.249 40.0785C23.7935 40.0785 23.3425 40.1823 22.9217 40.384C22.5009 40.5856 22.1185 40.8812 21.7964 41.2538C21.4743 41.6264 21.2189 42.0687 21.0445 42.5555C20.8702 43.0424 20.7805 43.5641 20.7805 44.0911C20.7805 44.618 20.8702 45.1398 21.0445 45.6266C21.2189 46.1135 21.4743 46.5558 21.7964 46.9284L42.5812 70.9734C42.903 71.3466 43.2852 71.6427 43.7061 71.8447C44.1269 72.0467 44.5781 72.1507 45.0338 72.1507C45.4894 72.1507 45.9406 72.0467 46.3614 71.8447C46.7823 71.6427 47.1646 71.3466 47.4864 70.9734L95.9841 14.8684Z" fill="black"/>
</svg>
