<svg width="97" height="85" viewBox="0 0 97 85" fill="none" xmlns="http://www.w3.org/2000/svg">
<path d="M90.9375 84.1614C90.9375 84.1614 97 84.1614 97 77.1479C97 70.1345 90.9375 49.0941 66.6875 49.0941C42.4375 49.0941 36.375 70.1345 36.375 77.1479C36.375 84.1614 42.4375 84.1614 42.4375 84.1614H90.9375ZM42.5709 77.1479L42.4375 77.1199C42.4436 75.2683 43.4499 69.896 47.045 65.0567C50.3915 60.519 56.2721 56.1076 66.6875 56.1076C77.0968 56.1076 82.9774 60.526 86.33 65.0567C89.9251 69.896 90.9254 75.2753 90.9375 77.1199L90.889 77.1339L90.8041 77.1479H42.5709ZM66.6875 35.0672C69.9033 35.0672 72.9873 33.5894 75.2612 30.9589C77.535 28.3283 78.8125 24.7605 78.8125 21.0403C78.8125 17.3202 77.535 13.7524 75.2612 11.1218C72.9873 8.49127 69.9033 7.01345 66.6875 7.01345C63.4717 7.01345 60.3877 8.49127 58.1138 11.1218C55.84 13.7524 54.5625 17.3202 54.5625 21.0403C54.5625 24.7605 55.84 28.3283 58.1138 30.9589C60.3877 33.5894 63.4717 35.0672 66.6875 35.0672ZM84.875 21.0403C84.875 23.8034 84.4046 26.5394 83.4906 29.0921C82.5766 31.6449 81.2369 33.9643 79.548 35.9181C77.8591 37.8719 75.8542 39.4217 73.6476 40.4791C71.4409 41.5365 69.0759 42.0807 66.6875 42.0807C64.2991 42.0807 61.9341 41.5365 59.7274 40.4791C57.5208 39.4217 55.5159 37.8719 53.827 35.9181C52.1381 33.9643 50.7984 31.6449 49.8844 29.0921C48.9704 26.5394 48.5 23.8034 48.5 21.0403C48.5 15.4601 50.4162 10.1084 53.827 6.16257C57.2378 2.21674 61.8639 0 66.6875 0C71.5111 0 76.1372 2.21674 79.548 6.16257C82.9588 10.1084 84.875 15.4601 84.875 21.0403ZM42.0495 51.0579C39.623 50.1806 37.1237 49.6 34.5926 49.3256C33.1702 49.1651 31.7417 49.0878 30.3125 49.0941C6.0625 49.0941 0 70.1345 0 77.1479C0 81.8235 2.02083 84.1614 6.0625 84.1614H31.622C30.7237 81.9717 30.2755 79.5713 30.3125 77.1479C30.3125 70.0643 32.5981 62.8265 36.9206 56.7809C38.3938 54.7189 40.1095 52.7902 42.0495 51.0579ZM29.8275 56.1076C26.2417 62.3457 24.3036 69.6567 24.25 77.1479H6.0625C6.0625 75.3244 7.05675 69.9241 10.67 65.0567C13.9741 60.5962 19.7153 56.2478 29.8275 56.1146V56.1076ZM9.09375 24.5471C9.09375 18.9668 11.0099 13.6151 14.4207 9.6693C17.8316 5.72347 22.4576 3.50672 27.2812 3.50672C32.1049 3.50672 36.7309 5.72347 40.1418 9.6693C43.5526 13.6151 45.4688 18.9668 45.4688 24.5471C45.4688 30.1273 43.5526 35.479 40.1418 39.4248C36.7309 43.3707 32.1049 45.5874 27.2812 45.5874C22.4576 45.5874 17.8316 43.3707 14.4207 39.4248C11.0099 35.479 9.09375 30.1273 9.09375 24.5471ZM27.2812 10.5202C24.0655 10.5202 20.9815 11.998 18.7076 14.6286C16.4337 17.2591 15.1562 20.8269 15.1562 24.5471C15.1562 28.2672 16.4337 31.835 18.7076 34.4656C20.9815 37.0961 24.0655 38.574 27.2812 38.574C30.497 38.574 33.581 37.0961 35.8549 34.4656C38.1288 31.835 39.4062 28.2672 39.4062 24.5471C39.4062 20.8269 38.1288 17.2591 35.8549 14.6286C33.581 11.998 30.497 10.5202 27.2812 10.5202Z" fill="black"/>
</svg>
