<svg width="97" height="97" viewBox="0 0 97 97" fill="none" xmlns="http://www.w3.org/2000/svg">
<path d="M18.1875 12.125V39.9276L60.625 82.3651L88.4276 54.5625L45.9901 12.125H18.1875ZM12.125 12.125C12.125 10.5171 12.7637 8.9751 13.9007 7.83816C15.0376 6.70123 16.5796 6.0625 18.1875 6.0625H45.9901C47.5979 6.06284 49.1396 6.70179 50.2763 7.83881L92.7138 50.2763C93.8504 51.4132 94.4888 52.9549 94.4888 54.5625C94.4888 56.1701 93.8504 57.7118 92.7138 58.8487L64.9112 86.6513C63.7743 87.7879 62.2326 88.4263 60.625 88.4263C59.0174 88.4263 57.4757 87.7879 56.3388 86.6513L13.9013 44.2138C12.7643 43.0771 12.1253 41.5354 12.125 39.9276V12.125Z" fill="black"/>
<path d="M33.3438 30.3125C32.5398 30.3125 31.7688 29.9931 31.2003 29.4247C30.6319 28.8562 30.3125 28.0852 30.3125 27.2812C30.3125 26.4773 30.6319 25.7063 31.2003 25.1378C31.7688 24.5694 32.5398 24.25 33.3438 24.25C34.1477 24.25 34.9187 24.5694 35.4872 25.1378C36.0556 25.7063 36.375 26.4773 36.375 27.2812C36.375 28.0852 36.0556 28.8562 35.4872 29.4247C34.9187 29.9931 34.1477 30.3125 33.3438 30.3125ZM33.3438 36.375C35.7556 36.375 38.0686 35.4169 39.774 33.7115C41.4794 32.0061 42.4375 29.6931 42.4375 27.2812C42.4375 24.8694 41.4794 22.5564 39.774 20.851C38.0686 19.1456 35.7556 18.1875 33.3438 18.1875C30.9319 18.1875 28.6189 19.1456 26.9135 20.851C25.2081 22.5564 24.25 24.8694 24.25 27.2812C24.25 29.6931 25.2081 32.0061 26.9135 33.7115C28.6189 35.4169 30.9319 36.375 33.3438 36.375ZM6.0625 42.9589C6.06284 44.5666 6.70179 46.1084 7.83881 47.2451L53.0469 92.4531L52.7862 92.7138C51.6493 93.8504 50.1076 94.4888 48.5 94.4888C46.8924 94.4888 45.3507 93.8504 44.2138 92.7138L1.77631 50.2763C0.639295 49.1396 0.000343364 47.5979 0 45.9901L0 18.1875C0 16.5796 0.638726 15.0376 1.77567 13.9007C2.9126 12.7637 4.45463 12.125 6.0625 12.125V42.9589Z" fill="black"/>
</svg>
