<svg width="91" height="107" viewBox="0 0 91 107" fill="none" xmlns="http://www.w3.org/2000/svg">
<path d="M66.7852 69.0516C72.2922 60.2296 74.7587 49.2918 73.6913 38.4265C72.6239 27.5612 68.1013 17.5697 61.0283 10.4509C53.9554 3.33214 44.8536 -0.388913 35.544 0.032209C26.2344 0.453331 17.4036 4.98557 10.8182 12.7222C4.23276 20.4588 0.37848 30.8292 0.0264262 41.7587C-0.325627 52.6882 2.85051 63.3708 8.9194 71.6692C14.9883 79.9676 23.5024 85.2698 32.7583 86.5151C42.0142 87.7605 51.3293 84.857 58.8401 78.3857H58.8344C59.0012 78.6527 59.187 78.9087 59.3918 79.1535L81.2878 104.859C82.3542 106.112 83.8009 106.816 85.3095 106.816C86.8182 106.817 88.2653 106.114 89.3325 104.862C90.3996 103.61 90.9995 101.912 91 100.141C91.0005 98.3696 90.4017 96.6708 89.3353 95.418L67.4393 69.7126C67.236 69.4708 67.0174 69.2543 66.7852 69.0516ZM68.2525 43.3863C68.2525 48.2087 67.4435 52.9839 65.8715 57.4392C64.2995 61.8945 61.9954 65.9427 59.0908 69.3526C56.1862 72.7626 52.7379 75.4675 48.9428 77.313C45.1478 79.1584 41.0802 80.1083 36.9725 80.1083C32.8647 80.1083 28.7972 79.1584 25.0021 77.313C21.207 75.4675 17.7587 72.7626 14.8541 69.3526C11.9495 65.9427 9.64542 61.8945 8.07345 57.4392C6.50148 52.9839 5.69239 48.2087 5.69239 43.3863C5.69239 33.647 8.98796 24.3067 14.8541 17.42C20.7203 10.5333 28.6765 6.66435 36.9725 6.66435C45.2685 6.66435 53.2247 10.5333 59.0908 17.42C64.957 24.3067 68.2525 33.647 68.2525 43.3863Z" fill="black"/>
</svg>
